# xmcd
#
# Track frame offsets:
#	150
#	10343
#	22495
#	35482
#	51149
#	63627
#	76020
#	89822
#	102155
#	115783
#	127765
#	141880
#	157206
#	173351
#	186252
#
# Disc length: 2710
#
# Revision: 3
# Processed by: cddbd v1.5.1PL0 Copyright (c) Steve Scherf et al.
# Submitted via: Axialis_AX_CDPlayer 2.6
# Normalized: r2:DSETVAR1
#
DISCID=c90a940f
DTITLE=Various Artist - Classic Country Golden 70's disc 2
DYEAR=1900
DGENRE=
TTITLE0=Charldy Pride - Is Anybody Goin' To San Antone
TTITLE1=Dolly Parton - Jolene
TTITLE2=Freddy Fender - You'll Lose a Good Thing
TTITLE3=Don Williams - 'Til the Rivers All Run Dry
TTITLE4=Charlie Rich - A Very Special Love Song
TTITLE5=Ronnie Milsap - Please Don't Tell Me How the Story Ends
TTITLE6=Tammy Wynette - 'Til I Can Make It on My Own
TTITLE7=George Jones - The Door
TTITLE8=Mickey Gilley - Don't the Girls All Get Prettier at Closing Time
TTITLE9=Conway Twitty and Loretta Lynn - After the Fire is Gone
TTITLE10=Barbara Mandrell - (If Loving You Is Wrong) I Don't Want to Be Right
TTITLE11=John Conlee - Rose Colored Glasses
TTITLE12=Willie Nelson - Blue Skies
TTITLE13=The Statler Brothers - I'll Go to My Grave Loving You
TTITLE14=C.W. McCall - Convoy
EXTD=
EXTT0=
EXTT1=
EXTT2=
EXTT3=
EXTT4=
EXTT5=
EXTT6=
EXTT7=
EXTT8=
EXTT9=
EXTT10=
EXTT11=
EXTT12=
EXTT13=
EXTT14=
PLAYORDER=
